<svg id="Capa_1" data-name="Capa 1" xmlns="http://www.w3.org/2000/svg" width="720" height="720" viewBox="0 0 720 720">
  <g>
    <polygon points="79.315 318.317 61.258 376.401 81.823 376.401 99.881 318.317 79.315 318.317"/>
    <polygon points="144.776 339.283 99.908 339.283 95.277 354.18 140.144 354.18 133.236 376.401 153.802 376.401 171.859 318.317 151.294 318.317 144.776 339.283"/>
    <polygon points="371.369 333.214 375.379 318.317 327.904 318.317 324.398 318.317 301.395 318.317 280.932 318.317 280.829 318.317 262.772 376.401 283.337 376.401 296.763 333.214 319.767 333.214 327.904 333.214 347.221 333.214 345.66 338.782 325.797 346.005 299.792 346.005 295.161 360.902 336.431 360.902 366.727 347.359 371.369 333.214"/>
    <polygon points="385.842 347.058 373.993 354.692 372.372 360.902 367.741 375.799 412.583 375.799 419.343 375.799 459.554 375.799 464.186 360.902 419.343 360.902 412.583 360.902 405.518 360.902 408.905 358.72 427.006 347.058 408.905 335.396 405.517 333.214 426.327 333.214 431.582 333.214 473.298 333.214 477.929 318.317 431.582 318.317 426.327 318.317 384.611 318.317 380.972 330.023 380.972 330.023 379.98 333.214 379.99 333.214 377.405 341.622 385.842 347.058"/>
    <path d="M268.783,335.222c4.982-6.168,5.255-16.9,5.255-16.9H253.473c-6.367,9.323-16.753,15.8-21.059,17.074-4.978,1.475-15.834,2.272-20.757.625s-10.376-8.993-10.048-17.7H181.044s-5.769,6.771-4.242,13.643,13.867,15.449,19.886,20.415c4.843,4,6.665,4.973,7.192,8.652L199.1,376.4h20.565l4.409-14.183C232.5,354.556,263.8,341.39,268.783,335.222Z"/>
    <path d="M618.625,395.562c40.629-42.435,35.513-88.18,35.513-88.18-15.951,45.745-57.181,71.928-57.181,71.928a213.567,213.567,0,0,0-44.46-20.647l.52-1.1s18.489-4.115,22.271-10.533c2.277-3.865,5.439-10.1,7.423-28.716h-94.3l-8.407,27.045c-21.849-1.094-36.234.643-36.234.643a330.577,330.577,0,0,1,34.15,6.059c6.615,1.533,12.959,3.214,19.012,5A332.328,332.328,0,0,1,544.5,375.09l.175.082c20.981,9.9,32.723,18.283,32.723,18.283-77.045,55.977-220.3,53.871-220.3,53.871,154.691,27.687,242.87-36.416,242.87-36.416,20.164,7.524,75.54,77.345,75.54,77.345C665.875,436.491,618.625,395.562,618.625,395.562ZM537.568,344.3H500.9l3.446-11.085h53.169C552.984,343.4,537.568,344.3,537.568,344.3Z"/>
    <path d="M476.929,355.257,470.355,376.4H490.92l4.831-15.538A47.4,47.4,0,0,0,476.929,355.257Z"/>
  </g>
</svg>
